<?xml version="1.0" ?><svg width="64px" height="64px" viewBox="0 0 64 64" xmlns="http://www.w3.org/2000/svg"><g id="a"/><g id="b"/><g id="c"/><g id="d"/><g id="e"/><g id="f"/><g id="g"/><g id="h"/><g id="i"/><g id="j"/><g id="k"/><g id="l"/><g id="m"/><g id="n"/><g id="o"/><g id="p"/><g id="q"/><g id="r"/><g id="s"/><g id="t"/><g id="u"><path d="M26.3,12.65c-.33-.73-.83-1.39-1.45-1.92l-7.41-6.32c-.35-.3-.8-.44-1.25-.41-.46,.04-.88,.25-1.17,.6-.12,.14-.22,.3-.29,.48h0l-2.42,6.06h-4.05c-1.11,0-2.01,.9-2.01,2.01v6.75c0,1.02,.65,1.94,1.61,2.29l6.84,2.47-7.47,10.35c-.49,.68-.34,1.64,.35,2.13,.25,.18,.55,.28,.86,.29l5.54,.11-.34,16.72-6,3.36c-.29,.17-.51,.44-.6,.76-.09,.33-.05,.67,.11,.96,.22,.4,.65,.65,1.1,.65h25.92c.91,0,1.79-.37,2.43-1.02l20.31-20.76c.67-.69,.96-1.66,.78-2.6l-2.88-14.96c-.2-1.04-1.12-1.8-2.18-1.8h-10.04c-.92,0-1.67,.75-1.67,1.67,0,.22,.04,.44,.13,.64l4.46,10.73-5.8,10.01L26.3,12.65Zm7.74,21.69l-16.33-10.44,7.06-9.78,9.27,20.21ZM16.43,6.19l5.82,4.96h-7.8l1.98-4.96Zm-7.9,14.13c-.17-.06-.29-.23-.29-.41v-6.76h14.76l-7.1,9.83-7.38-2.66Zm.84,15.14l7.17-9.93,16.29,10.41-23.46-.48Zm12.55,16.47c.62-.34,1.39-.23,1.87,.29l5.46,5.78H11.08l10.84-6.07Zm13.25,5.65c-.26,.27-.63,.42-1,.42h-2.17l-6.76-7.16c-1.12-1.18-2.89-1.45-4.3-.66l-5.29,2.96,.32-15.55,19.74,.41,5.94,12.95-6.48,6.63Zm7.91-36.72h8.83l-5.14,8.87-3.69-8.87Zm10.09,1.82l2.56,13.33c.06,.3-.04,.6-.25,.82l-12.33,12.6-2.42-5.28,12.44-21.46Z"/></g><g id="v"/><g id="w"/><g id="x"/><g id="y"/><g id="a`"/><g id="aa"/><g id="ab"/><g id="ac"/><g id="ad"/><g id="ae"/><g id="af"/><g id="ag"/><g id="ah"/><g id="ai"/><g id="aj"/><g id="ak"/><g id="al"/><g id="am"/><g id="an"/><g id="ao"/><g id="ap"/><g id="aq"/><g id="ar"/><g id="as"/><g id="at"/><g id="au"/><g id="av"/><g id="aw"/><g id="ax"/></svg>