<?xml version="1.0" encoding="iso-8859-1"?>
<!-- Generator: Adobe Illustrator 16.0.0, SVG Export Plug-In . SVG Version: 6.00 Build 0)  -->
<!DOCTYPE svg PUBLIC "-//W3C//DTD SVG 1.1//EN" "http://www.w3.org/Graphics/SVG/1.1/DTD/svg11.dtd">
<svg version="1.1" id="Capa_1" xmlns="http://www.w3.org/2000/svg" xmlns:xlink="http://www.w3.org/1999/xlink" x="0px" y="0px"
	 width="616.004px" height="616.004px" viewBox="0 0 616.004 616.004" style="enable-background:new 0 0 616.004 616.004;"
	 xml:space="preserve">
<g>
	<g>
		<path d="M228.125,351.686c5.982-9.051,7.758-20.832,4.858-32.307c-2.85-11.292-9.754-21.033-19.439-27.436
			c-7.067-4.67-14.543-7.042-22.226-7.042c-13.081,0-25.201,6.986-33.248,19.163c-6.038,9.134-8.31,18.999-6.572,28.54
			c1.293,7.1,5.499,17.324,18.171,25.703c8.938,5.914,18.705,9.033,28.232,9.033C210.531,367.334,221.546,361.627,228.125,351.686z
			 M202.195,334.543c-0.339,0.516-1.13,1.715-4.299,1.715c-3.321,0-7.363-1.412-11.091-3.879c-2.718-1.797-4.444-3.748-4.739-5.35
			c-0.264-1.455,0.433-3.576,1.92-5.824c2.159-3.27,4.902-5.223,7.325-5.223c1.481,0,3.188,0.635,5.084,1.891
			C203.193,322.354,204.581,330.941,202.195,334.543z"/>
		<path d="M419.916,284.895c-7.683,0-15.158,2.366-22.226,7.042c-9.686,6.402-16.59,16.15-19.439,27.436
			c-2.899,11.48-1.13,23.254,4.858,32.307c6.578,9.947,17.594,15.646,30.223,15.646c9.528,0,19.288-3.125,28.232-9.031
			c12.68-8.379,16.878-18.605,18.171-25.703c1.739-9.541-0.533-19.408-6.571-28.541C445.111,291.88,432.997,284.895,419.916,284.895
			z M429.162,327.023c-0.295,1.602-2.015,3.553-4.739,5.348c-3.729,2.467-7.776,3.879-11.091,3.879c-3.17,0-3.961-1.197-4.3-1.713
			c-2.379-3.604-0.998-12.189,5.794-16.684c1.896-1.256,3.608-1.889,5.084-1.889c2.423,0,5.166,1.951,7.325,5.223
			C428.723,323.445,429.426,325.568,429.162,327.023z"/>
		<path d="M584.354,325.418c-17.086-23.965-40.04-42.52-66.785-54.087c-0.088-5.31-1.154-20.857-10.011-37.654
			c17.706-23.544,25.006-62.497,21.686-116.069c-2.655-42.838-11.135-79.438-11.499-80.976L509.171,0l-19.771,32.018
			c-8.091,13.043-34.679,48.5-60.125,55.662c-22.521,6.339-39.951,15.328-52.009,26.795c-20.751-5.549-43.51-8.354-67.813-8.354
			c-0.483,0-0.967,0.013-1.456,0.013c-0.483,0-0.967-0.013-1.457-0.013c-24.303,0-47.057,2.806-67.807,8.354
			c-12.058-11.468-29.488-20.456-52.009-26.795c-25.446-7.162-52.034-42.619-60.125-55.662L106.833,0l-8.581,36.637
			c-0.357,1.538-8.844,38.138-11.499,80.976c-3.314,53.566,3.979,92.519,21.686,116.069c-8.856,16.796-9.924,32.338-10.012,37.654
			c-26.745,11.568-49.699,30.122-66.784,54.087C12.249,352.627,1.999,384.719,1.999,418.23c0,54.006,28.251,105.65,73.727,134.793
			c27.329,17.512,62.585,26.389,104.796,26.389c3.584,0,7.268-0.064,10.953-0.195c6.471-0.227,12.855-0.797,19.144-1.607
			c19.333,19.955,49.699,38.395,95.927,38.395c0.49,0,0.967-0.012,1.456-0.018c0.49,0.006,0.967,0.018,1.456,0.018
			c46.229,0,76.596-18.439,95.928-38.395c6.296,0.811,12.673,1.387,19.144,1.607c3.685,0.125,7.369,0.195,10.953,0.195
			c42.211,0,77.468-8.877,104.797-26.389c45.475-29.143,73.726-80.787,73.726-134.793
			C613.999,384.719,603.749,352.627,584.354,325.418z M491.126,138.333c2.579-6.07,4.965-11.926,7.168-17.582
			c2.203,37.422-1.368,66.753-10.144,85.131c-5.479-6.804-12.076-14.374-18.805-20.631
			C474.693,174.631,482.929,157.621,491.126,138.333z M178.306,117.595c26.174,7.369,37.886,17.085,43.108,23.933l6.641,8.718
			l10.444-3.333c20.224-6.453,43.121-9.723,68.052-9.723c0.49,0,0.967,0.013,1.456,0.013c0.483,0,0.967-0.013,1.457-0.013
			c24.931,0,47.828,3.27,68.052,9.723l10.445,3.333l6.641-8.718c5.222-6.854,16.935-16.564,43.108-23.933
			c11.919-3.358,24.071-10.231,36.305-20.513c-11.863,33.041-29.111,68.423-37.975,85.037l-2.19,4.105
			c-0.427-0.062-0.835-0.138-1.268-0.194c-26.595-3.741-49.26,2.115-67.368,17.418c-35.722,30.185-39.996,85.897-40.454,102.449
			c-0.784,27.742-5.555,51.877-7.551,58.154h-9.208h-9.208c-2.002-6.277-6.767-30.412-7.539-58.154
			c-0.458-16.558-4.732-72.59-40.454-102.775c-18.108-15.302-40.773-20.996-67.368-17.254c-0.427,0.062-0.841,0.213-1.268,0.276
			l-2.191-4.061c-8.863-16.614-26.111-51.978-37.974-85.018C154.235,107.345,166.387,114.236,178.306,117.595z M326.832,486.064
			c0,1.668,6.277,2.938,12.554,3.791v15.215v9.621h-12.554v-9.629V486.064z M117.704,120.751c2.203,5.656,4.588,11.512,7.168,17.582
			c8.198,19.288,16.439,36.298,21.774,46.918c-6.729,6.258-13.326,13.828-18.805,20.632
			C119.073,187.511,115.501,158.18,117.704,120.751z M523.508,526.855c-22.245,14.256-51.858,21.48-88.031,21.48
			c-2.781,0-5.637-0.051-8.505-0.139c11.699-21.209,15.102-39.463,15.265-40.385l-15.297-2.75l-15.283-2.805
			c-0.007,0.043-0.201,1.055-0.646,2.805c-1.626,6.416-6.604,22.867-18.108,39.055c-0.139,0.188-0.264,0.383-0.401,0.57
			c-7.596,10.539-16.552,19.02-26.809,25.434c-15.729,9.836-34.528,14.807-56.239,14.807c-0.49,0-0.967-0.018-1.456-0.018
			c-0.483,0.006-0.967,0.018-1.457,0.018c-21.705,0-40.51-4.971-56.239-14.807c-10.256-6.414-19.213-14.895-26.808-25.434
			c-0.138-0.188-0.27-0.383-0.401-0.57c-11.505-16.188-16.483-32.639-18.108-39.055c-0.439-1.75-0.641-2.754-0.646-2.805
			l-15.284,2.805l-15.296,2.75c0.164,0.922,3.565,19.176,15.265,40.385c-2.869,0.088-5.724,0.139-8.505,0.139
			c-36.173,0-65.787-7.225-88.031-21.48c-36.65-23.48-59.416-65.107-59.416-108.625c0-27.008,8.254-52.861,23.877-74.768
			c15.296-21.453,36.405-37.522,61.047-46.479l9.371-3.364c0,0,0.81-9.93,0.81-9.942c1.462-17.995,5.793-36.336,18.359-50.057
			c10.583-11.562,25.942-16.514,41.307-16.822c14.688-0.295,31.151,0.452,42.902,10.382c20.55,17.368,28.685,52.831,29.444,80.223
			c0.734,26.406,4.714,48.576,7.3,60.458c-8.153,5.209-12.108,17.385-4.218,25.27l25.904,27.373v5.441v25.428
			c0,1.33-8.762,5.246-8.762,5.246c-4.927,2.322-9.509,3.496-15.052,3.496c-12.604,0-24.059-6.02-30.479-16.406
			c-3.233-5.223-4.576-10.615-4.576-16.891h-15.542H199.22c0,12.553,4.77,23.092,11.035,33.229
			c8.957,14.492,22.42,24.461,41.25,28.842v16.174v33.6v7.414h56.491h56.49v-7.414v-33.6v-16.174
			c18.83-4.381,32.294-14.35,41.251-28.842c6.264-10.137,11.034-20.676,11.034-33.229H401.23h-15.535
			c0,6.275-1.707,11.668-4.934,16.891c-6.421,10.387-18.24,16.627-30.844,16.627c-5.549,0-9.39-1.287-14.317-3.609
			c0,0-8.762-4.023-8.762-5.354v-25.428v-5.441l25.897-27.373c7.884-7.885,4.67-20.061-3.483-25.27
			c2.586-11.883,6.201-34.053,6.936-60.458c0.76-27.398,8.706-62.855,29.263-80.223c11.75-9.93,28.126-10.677,42.813-10.382
			c15.358,0.308,30.674,5.26,41.257,16.822c12.565,13.721,16.872,32.062,18.334,50.057c0,0.013,0.797,9.942,0.797,9.942l9.365,3.364
			c24.643,8.951,45.745,25.026,61.041,46.479c15.616,21.906,23.877,47.76,23.877,74.768
			C582.923,461.754,560.157,503.375,523.508,526.855z M289.172,486.064v19.006v9.621h-12.553v-9.629v-15.215
			C282.895,488.994,289.172,487.727,289.172,486.064z"/>
	</g>
</g>
<g>
</g>
<g>
</g>
<g>
</g>
<g>
</g>
<g>
</g>
<g>
</g>
<g>
</g>
<g>
</g>
<g>
</g>
<g>
</g>
<g>
</g>
<g>
</g>
<g>
</g>
<g>
</g>
<g>
</g>
</svg>
