<?xml version="1.0" encoding="UTF-8"?><svg id="Layer_1" xmlns="http://www.w3.org/2000/svg" viewBox="0 0 173.42 163.08"><defs><style>.cls-1{fill:#1d1716;}</style></defs><g id="KTVBG7"><path class="cls-1" d="M57.52,145.29c.08,1.76-1.32,3.23-3.08,3.23H17.84c-1.7,0-3.09-1.38-3.09-3.09V19.92c0-1.72,1.4-3.11,3.12-3.09,8.34,.09,45.78,.06,50.11,.06,2.16,0,3.13,1.24,3.74,2.66,3.29,7.57,6.71,15.07,9.93,22.67,9.65,22.77,19.22,45.58,28.83,68.36,.18,.44,.43,.84,.78,1.22-.05-3.83,.12-8.46-1.39-12.02-8.08-19.05-16.19-38.08-24.27-57.13-2.38-5.61-2.4-10.39-.4-15.98,3.94-10.97,11.81-18.16,22.29-22.66,18.95-8.15,42.03-3.58,55.64,10.92,6.56,6.99,9.77,15.33,10.24,24.89,.27,5.53-.64,10.87-1.96,16.14-.51,2.03-1.87,3.86-2.93,5.72-.26,.45-.89,.69-1.62,1.22-.15-.97-.24-1.55-.28-1.77-1.94,2.48-3.88,5.3-6.18,7.78-1.67,1.79-3.78,3.17-5.79,4.61-.52,.37-1.37,.27-2.35,.43,.37-1.02,.58-1.59,.93-2.55-1.5,.86-2.72,1.6-3.97,2.28-2.22,1.21-3.77,.91-5.53-1.83-2.86-4.46-6-9.03-7.34-14.32-.78-3.07-1.33-5.7-.65-8.78,.66-2.98,2.54-4.78,5.48-5.3-1.42-1.68-3.66-1.88-5.66-.28-3.09,2.5-3.8,5.89-3.37,9.69,.8,7.16,4.59,12.99,8.21,18.93,3.65,5.98,7.67,11.83,9.62,18.61,3.47,12.06,3.02,23.89-2.35,35.52-4.32,9.35-10.33,15.23-18.74,20.88-2.04,1.37-4.72,1.8-7.32,1.73h-37.44c-1.85-.02-3.07,.18-4.14-1.36-10.43-15.01-19.65-24.91-20.68-48.86-.48-11.05-.45-15.01-.45-22.13s-1.78-11.68-3.62-11.76c0,2.22,1.59,66.08,2.3,80.88Z"/></g></svg>