<?xml version="1.0" encoding="UTF-8"?><svg id="Layer_1" xmlns="http://www.w3.org/2000/svg" viewBox="0 0 60 56.42"><defs><style>.cls-1{fill:#1d1716;}</style></defs><g id="KTVBG7"><path class="cls-1" d="M19.9,50.27c.03,.61-.46,1.12-1.07,1.12H6.17c-.59,0-1.07-.48-1.07-1.07V6.89c0-.59,.48-1.07,1.08-1.07,2.89,.03,15.84,.02,17.34,.02,.75,0,1.08,.43,1.3,.92,1.14,2.62,2.32,5.22,3.43,7.84,3.34,7.88,6.65,15.77,9.98,23.65,.06,.15,.15,.29,.27,.42-.02-1.33,.04-2.93-.48-4.16-2.8-6.59-5.6-13.18-8.4-19.77-.82-1.94-.83-3.6-.14-5.53,1.36-3.8,4.09-6.28,7.71-7.84,6.56-2.82,14.54-1.24,19.25,3.78,2.27,2.42,3.38,5.31,3.54,8.61,.09,1.91-.22,3.76-.68,5.58-.18,.7-.65,1.33-1.01,1.98-.09,.16-.31,.24-.56,.42-.05-.33-.08-.53-.1-.61-.67,.86-1.34,1.83-2.14,2.69-.58,.62-1.31,1.1-2,1.6-.18,.13-.47,.09-.81,.15,.13-.35,.2-.55,.32-.88-.52,.3-.94,.55-1.37,.79-.77,.42-1.31,.32-1.92-.63-.99-1.54-2.08-3.12-2.54-4.95-.27-1.06-.46-1.97-.22-3.04,.23-1.03,.88-1.65,1.9-1.84-.49-.58-1.27-.65-1.96-.1-1.07,.86-1.31,2.04-1.17,3.35,.28,2.48,1.59,4.5,2.84,6.55,1.26,2.07,2.65,4.09,3.33,6.44,1.2,4.17,1.04,8.26-.81,12.29-1.49,3.23-3.58,5.27-6.48,7.22-.71,.47-1.63,.62-2.53,.6h-12.96c-.64,0-1.06,.06-1.43-.47-3.61-5.19-6.8-8.62-7.16-16.91-.16-3.82-.16-5.19-.16-7.66s-.61-4.04-1.25-4.07c0,.77,.55,22.86,.8,27.99Z"/></g></svg>