<?xml version="1.0" encoding="UTF-8"?><svg id="Layer_1" xmlns="http://www.w3.org/2000/svg" viewBox="0 0 173.42 190.69"><defs><style>.cls-1{fill:#1d1716;}</style></defs><g><path d="M28.06,162.26v12.69c0,.44-.35,.78-.78,.78h-1.59c-.24,0-.48-.11-.63-.32l-6.92-9.25c.02,.23,.03,.44,.05,.63,.05,.5,.09,.93,.11,1.29,.03,.37,.05,.69,.07,.96,.02,.27,.04,.53,.04,.77,.01,.24,.01,.51,.01,.77v4.35c0,.44-.35,.78-.78,.78h-1.43c-.43,0-.78-.35-.78-.78v-12.69c0-.43,.36-.78,.78-.78h1.56c.24,0,.48,.12,.62,.32l6.98,9.42c-.02-.11-.03-.21-.04-.32-.04-.4-.07-.8-.11-1.22-.03-.41-.06-.84-.08-1.28-.02-.44-.03-.91-.05-1.41-.01-.49-.02-1.03-.02-1.62v-3.11c0-.43,.36-.78,.78-.78h1.43c.44,0,.78,.36,.78,.78Z"/><path d="M41.31,175.86c-1.15,0-2.18-.24-3.09-.72s-1.61-1.15-2.13-2c-.52-.85-.77-1.81-.77-2.88v-8.02c0-.43,.35-.78,.78-.78h1.51c.43,0,.78,.35,.78,.78v7.83c0,.57,.13,1.08,.39,1.54,.26,.46,.61,.82,1.05,1.09,.44,.27,.93,.41,1.48,.41s1.06-.14,1.52-.41c.46-.27,.82-.63,1.08-1.09,.27-.46,.4-.97,.4-1.54v-7.83c0-.43,.35-.78,.78-.78h1.41c.43,0,.78,.35,.78,.78v8.02c0,1.07-.26,2.03-.77,2.88-.52,.85-1.23,1.51-2.13,2s-1.92,.72-3.07,.72Z"/><path d="M57.5,174.96v-9.94c0-.43-.35-.78-.78-.78h-2.59c-.43,0-.78-.35-.78-.78v-1.18c0-.43,.35-.78,.78-.78h9.92c.43,0,.78,.35,.78,.78v1.18c0,.43-.35,.78-.78,.78h-2.71c-.43,0-.78,.35-.78,.78v9.94c0,.43-.35,.78-.78,.78h-1.49c-.43,0-.78-.35-.78-.78Z"/><path d="M75.65,175.94c-.88,0-1.69-.11-2.41-.33-.73-.22-1.37-.54-1.94-.96-.39-.29-.76-.63-1.1-1.01-.25-.29-.24-.73,.02-1.02l.86-.98c.31-.35,.86-.35,1.17,0,.48,.55,.95,.94,1.43,1.18,.66,.33,1.37,.5,2.15,.5,.42,0,.8-.06,1.13-.17s.59-.28,.78-.5c.19-.22,.29-.47,.29-.77,0-.22-.05-.42-.14-.6-.09-.18-.23-.35-.41-.49-.18-.14-.39-.27-.63-.39-.24-.12-.52-.22-.81-.31-.3-.09-.63-.16-.98-.21-.76-.18-1.43-.39-2-.64-.57-.25-1.05-.56-1.43-.94-.38-.37-.66-.8-.85-1.27-.18-.47-.27-1.01-.27-1.61s.14-1.18,.41-1.7c.27-.52,.65-.97,1.13-1.35,.48-.38,1.04-.67,1.67-.88,.63-.2,1.3-.31,2.01-.31,.87,0,1.63,.1,2.28,.29,.65,.2,1.22,.48,1.7,.85,.28,.21,.54,.46,.76,.73,.27,.32,.26,.8-.04,1.09l-1.45,1.4c-.29-.38-.59-.7-.93-.96s-.69-.45-1.08-.58c-.39-.13-.78-.19-1.19-.19-.45,0-.83,.06-1.16,.17-.33,.12-.58,.28-.76,.5-.18,.22-.27,.48-.27,.79,0,.24,.06,.46,.18,.65,.12,.19,.3,.36,.53,.5,.23,.14,.51,.27,.83,.38,.33,.11,.69,.2,1.08,.28,.75,.15,1.42,.35,2.02,.59,.6,.24,1.11,.54,1.54,.89,.43,.35,.76,.75,.99,1.22s.35,1,.35,1.58c0,.96-.23,1.79-.69,2.46-.46,.68-1.1,1.2-1.91,1.56-.82,.36-1.77,.54-2.85,.54Z"/><path d="M99.58,162.26v12.69c0,.44-.35,.78-.78,.78h-1.49c-.43,0-.78-.35-.78-.78v-4.94h-5.93v4.94c0,.44-.35,.78-.78,.78h-1.49c-.43,0-.78-.35-.78-.78v-12.69c0-.43,.36-.78,.78-.78h1.49c.44,0,.78,.36,.78,.78v4.98h5.93v-4.98c0-.43,.36-.78,.78-.78h1.49c.44,0,.78,.36,.78,.78Z"/><path d="M116.73,173.83v1.12c0,.44-.35,.78-.78,.78h-8.21c-.43,0-.78-.35-.78-.78v-12.69c0-.43,.36-.78,.78-.78h8.07c.44,0,.78,.36,.78,.78v1.12c0,.44-.35,.78-.78,.78h-5.09c-.43,0-.78,.36-.78,.78v2.21h4.9c.44,0,.78,.36,.78,.78v1.04c0,.44-.35,.78-.78,.78h-4.9v2.5c0,.44,.36,.78,.78,.78h5.23c.44,0,.78,.36,.78,.78Z"/><path d="M123.55,174.96v-12.69c0-.43,.35-.78,.78-.78h1.49c.43,0,.78,.35,.78,.78v9.94c0,.43,.35,.78,.78,.78h4.89c.43,0,.78,.35,.78,.78v1.18c0,.43-.35,.78-.78,.78h-7.95c-.43,0-.78-.35-.78-.78Z"/><path d="M139.56,174.96v-12.69c0-.43,.35-.78,.78-.78h1.49c.43,0,.78,.35,.78,.78v9.94c0,.43,.35,.78,.78,.78h4.89c.43,0,.78,.35,.78,.78v1.18c0,.43-.35,.78-.78,.78h-7.95c-.43,0-.78-.35-.78-.78Z"/></g><g id="KTVBG7"><path class="cls-1" d="M57.52,145.29c.08,1.76-1.32,3.23-3.08,3.23H17.84c-1.7,0-3.09-1.38-3.09-3.09V19.92c0-1.72,1.4-3.11,3.12-3.09,8.34,.09,45.78,.06,50.11,.06,2.16,0,3.13,1.24,3.74,2.66,3.29,7.57,6.71,15.07,9.93,22.67,9.65,22.77,19.22,45.58,28.83,68.36,.18,.44,.43,.84,.78,1.22-.05-3.83,.12-8.46-1.39-12.02-8.08-19.05-16.19-38.08-24.27-57.13-2.38-5.61-2.4-10.39-.4-15.98,3.94-10.97,11.81-18.16,22.29-22.66,18.95-8.15,42.03-3.58,55.64,10.92,6.56,6.99,9.77,15.33,10.24,24.89,.27,5.53-.64,10.87-1.96,16.14-.51,2.03-1.87,3.86-2.93,5.72-.26,.45-.89,.69-1.62,1.22-.15-.97-.24-1.55-.28-1.77-1.94,2.48-3.88,5.3-6.18,7.78-1.67,1.79-3.78,3.17-5.79,4.61-.52,.37-1.37,.27-2.35,.43,.37-1.02,.58-1.59,.93-2.55-1.5,.86-2.72,1.6-3.97,2.28-2.22,1.21-3.77,.91-5.53-1.83-2.86-4.46-6-9.03-7.34-14.32-.78-3.07-1.33-5.7-.65-8.78,.66-2.98,2.54-4.78,5.48-5.3-1.42-1.68-3.66-1.88-5.66-.28-3.09,2.5-3.8,5.89-3.37,9.69,.8,7.16,4.59,12.99,8.21,18.93,3.65,5.98,7.67,11.83,9.62,18.61,3.47,12.06,3.02,23.89-2.35,35.52-4.32,9.35-10.33,15.23-18.74,20.88-2.04,1.37-4.72,1.8-7.32,1.73h-37.44c-1.85-.02-3.07,.18-4.14-1.36-10.43-15.01-19.65-24.91-20.68-48.86-.48-11.05-.45-15.01-.45-22.13s-1.78-11.68-3.62-11.76c0,2.22,1.59,66.08,2.3,80.88Z"/></g></svg>